<?xml version="1.0"?><svg version="1.2" baseProfile="tiny-ps" viewBox="0 0 300 300" xmlns="http://www.w3.org/2000/svg" xmlns:xlink="http://www.w3.org/1999/xlink"><title>logo</title><g><g fill="#fbfdfc" transform="matrix(.1 0 0 -.1 0 300)"><path d="M0 1500V0h3000v3000H0V1500z"/></g><g fill="#fbcd16" transform="matrix(.1 0 0 -.1 0 300)"><path d="M1350 2620c-97-26-201-78-277-140l-60-49-48-63c-26-35-60-89-76-120l-29-58-20-83-20-82v-181l15-59c8-33 31-91 50-130l34-70 56-67 55-67 63-47c34-26 94-62 132-80l71-34 69-15c90-19 167-19 263 0l77 16 90 44 90 44 57 45c31 25 80 73 109 108l52 63 38 80 39 80 15 98 16 97-10 80-11 81-24 70c-14 39-40 96-58 127l-33 56-70 71-70 72-64 37c-35 20-98 49-140 63l-76 26-115 4-115 3-75-20zm264-223 17-13 6-146 6-146 30-6c16-3 74-6 128-6h98l11-19 10-20v-197l-12-12-12-12h-254l-4-135-3-136-15-9-15-10h-190l-15 10-15 9-5 125-6 125-7 8c-5 4-58 10-120 14s-113 7-114 8-9 8-17 17l-16 15v205l12 12 12 12h256v153c0 85 3 157 7 160 3 4 52 7 108 7h101l18-13zm-763 11c-91-93-174-247-206-380l-15-63v-230l21-75 20-75 39-73c51-94 90-142 170-208l64-54 77-40c41-21 117-53 167-70l92-31 111-10 111-10 90 11 91 11 107 34 107 35 82 50c95 56 166 115 264 215l69 70 54 81c56 85 116 207 128 262 4 17 11 32 15 32s23-16 41-35l35-36 25 3 25 3-2 25c-1 14-9 90-19 168l-17 144-15 6-15 5-51-17c-73-25-236-105-236-115 0-5 21-28 46-50l47-41-23-62c-82-222-205-395-371-519l-67-49-83-39c-46-21-115-47-154-57l-70-18h-125l-125-1-75 24c-149 46-256 114-359 228l-61 68-44 90c-24 50-50 115-58 145l-13 55 1 125v125l32 95 32 95 55 90c30 50 55 93 55 98 0 19-32 3-69-35zM2427 908l-6-43 8-8 8-8 39 3 38 3 10 32 9 33-13 15-12 15h-75l-6-42zm-1362 21-7-10 3-187c2-103 5-194 7-204l4-16 24-6 24-6 20 10 20 11v198l22 7 22 7 18-23 18-22V510h80v242l-31 30-30 31-55-6-54-6v115l-12 12-12 12h-55l-6-11zm858-1-10-13 2-95c1-52 2-143 3-202l2-108h79l3 108 3 107 33 3 32 3 10-26 10-26V510h80v251l-25 25-26 26-59-4-60-3v135h-68l-9-12zm-503-16-35-17-18-37-18-37 10-39 11-39 18-16c9-9 46-26 81-39l64-23 11-17 11-18-11-17c-6-10-22-20-35-23l-24-6-30 7c-16 4-40 11-51 14l-22 7-12-37-12-37 11-11 12-12 82-3 82-3 35 19 35 19 18 34 18 34-6 35c-4 19-13 44-20 56l-14 21-80 33-81 32v37l19 11 20 10 51-11 52-11 9 9c6 6 11 23 12 38l2 29-40 12c-22 7-58 13-80 13l-40 1-35-18zm-1303 2-7-7V510h80v118l1 117 34-66c18-36 40-71 48-78l15-12 24 6 25 6 34 71 34 71 5-119 5-119h80v68c0 37-2 130-3 207l-2 140h-90l-47-95c-26-52-50-95-53-95-4 0-26 42-51 93l-45 92-40 3c-22 2-43 0-47-4zm2460-30c-4-4-7-22-7-41v-33h-30v-71l15-5 15-6V552l18-21 17-22 37-6c20-3 48-3 62 1l26 6v70h-68l-6 16c-3 9-6 42-6 75v59h110V541l28-21 27-22 52 4c29 3 55 7 58 9 2 3 0 22-6 42l-10 37h-58l-11 19-10 20v101h81l-3 38-3 37-32 3-33 3v70l-15 5c-8 4-26 3-40 0l-25-6v-70h-109l-3 38-3 37-30 3c-17 2-34 0-38-4zM593 806l-33-15v-25c0-33 10-37 52-25l36 9 26-10 26-10v-30h-91l-28-15c-16-8-31-22-35-30-9-25-7-94 4-115l10-18 28-10 29-10 86 5 86 6-5 86c-3 47-7 105-10 127l-5 41-24 23-24 23-48 4-48 3-32-14zm105-203 3-23-18-2c-34-3-57 2-64 14l-8 12 11 14 11 13 31-3 31-3 3-22zm207 210c-11-3-30-14-43-26l-23-21-16-55-15-54 11-52 12-52 25-24 26-24h127l12 12 11 11-7 32-7 32-37-6-38-6-19 14-19 14v89l15 17 14 18 38-6 37-6 7 36 7 35-11 11c-11 11-79 19-107 11zm848-4-33-10-20-39c-11-22-23-59-26-83l-6-42 11-41 11-40 24-23 24-23 40-5 40-5 36 12 36 12v18c0 10-3 25-6 34l-6 16h-97l-11 19c-13 26-13 64 2 97l12 26 42-6 42-5 6 15c3 9 6 28 6 44v27l-37 7c-45 7-49 7-90-5zm561-3-19-14-12 10-12 10-23-4-23-3-3-147-3-148h79l6 16c3 9 6 53 6 99v84l19 11c11 5 31 10 45 10h26v66l-12 12c-16 16-50 15-74-2zm123-3c-4-3-7-66-7-138V532l14-11 15-12 27 3 27 3-2 134c-1 73-5 139-8 147l-5 14h-27c-15 0-31-3-34-7z"/></g><g fill="#b0b8bf" transform="matrix(.1 0 0 -.1 0 300)"><path d="M1350 2620c-97-26-201-78-277-140l-60-49-48-63c-26-35-60-89-76-120l-29-58-20-83-20-82v-181l15-59c8-33 31-91 50-130l34-70 56-67 55-67 63-47c34-26 94-62 132-80l71-34 69-15c90-19 167-19 263 0l77 16 90 44 90 44 57 45c31 25 80 73 109 108l52 63 38 80 39 80 15 98 16 97-10 80-11 81-24 70c-14 39-40 96-58 127l-33 56-70 71-70 72-64 37c-35 20-98 49-140 63l-76 26-115 4-115 3-75-20zm264-223 17-13 6-146 6-146 30-6c16-3 74-6 128-6h98l11-19 10-20v-197l-12-12-12-12h-254l-4-135-3-136-15-9-15-10h-190l-15 10-15 9-5 125-6 125-7 8c-5 4-58 10-120 14s-113 7-114 8-9 8-17 17l-16 15v205l12 12 12 12h256v153c0 85 3 157 7 160 3 4 52 7 108 7h101l18-13zm-284-766v-100l23-25 22-25 110-3 110-3 30 13c17 7 37 23 45 35l14 22 4 93 4 92h194c107 0 194-3 194-6s-15-33-32-67l-33-60-49-55c-72-79-142-122-290-181l-29-12-96-6-96-5-89 21-88 21-57 31c-126 69-206 152-270 277l-21 42h400v-99zm-479 777c-91-93-174-247-206-380l-15-63v-230l21-75 20-75 39-73c51-94 90-142 170-208l64-54 77-40c41-21 117-53 167-70l92-31 111-10 111-10 90 11 91 11 107 34 107 35 82 50c95 56 166 115 264 215l69 70 54 81c56 85 116 207 128 262 4 17 11 32 15 32s23-16 41-35l35-36 25 3 25 3-2 25c-1 14-9 90-19 168l-17 144-15 6-15 5-51-17c-73-25-236-105-236-115 0-5 21-28 46-50l47-41-23-62c-82-222-205-395-371-519l-67-49-83-39c-46-21-115-47-154-57l-70-18h-125l-125-1-75 24c-149 46-256 114-359 228l-61 68-44 90c-24 50-50 115-58 145l-13 55 1 125v125l32 95 32 95 55 90c30 50 55 93 55 98 0 19-32 3-69-35zM2427 908l-6-43 8-8 8-8 39 3 38 3 10 32 9 33-13 15-12 15h-75l-6-42zm-1362 21-7-10 3-187c2-103 5-194 7-204l4-16 24-6 24-6 20 10 20 11v198l22 7 22 7 18-23 18-22V510h80v242l-31 30-30 31-55-6-54-6v115l-12 12-12 12h-55l-6-11zm858-1-10-13 2-95c1-52 2-143 3-202l2-108h79l3 108 3 107 33 3 32 3 10-26 10-26V510h80v251l-25 25-26 26-59-4-60-3v135h-68l-9-12zm-503-16-35-17-18-37-18-37 10-39 11-39 18-16c9-9 46-26 81-39l64-23 11-17 11-18-11-17c-6-10-22-20-35-23l-24-6-30 7c-16 4-40 11-51 14l-22 7-12-37-12-37 11-11 12-12 82-3 82-3 35 19 35 19 18 34 18 34-6 35c-4 19-13 44-20 56l-14 21-80 33-81 32v37l19 11 20 10 51-11 52-11 9 9c6 6 11 23 12 38l2 29-40 12c-22 7-58 13-80 13l-40 1-35-18zm-1303 2-7-7V510h80v118l1 117 34-66c18-36 40-71 48-78l15-12 24 6 25 6 34 71 34 71 5-119 5-119h80v68c0 37-2 130-3 207l-2 140h-90l-47-95c-26-52-50-95-53-95-4 0-26 42-51 93l-45 92-40 3c-22 2-43 0-47-4zm2460-30c-4-4-7-22-7-41v-33h-30v-71l15-5 15-6V552l18-21 17-22 37-6c20-3 48-3 62 1l26 6v70h-68l-6 16c-3 9-6 42-6 75v59h110V541l28-21 27-22 52 4c29 3 55 7 58 9 2 3 0 22-6 42l-10 37h-58l-11 19-10 20v101h81l-3 38-3 37-32 3-33 3v70l-15 5c-8 4-26 3-40 0l-25-6v-70h-109l-3 38-3 37-30 3c-17 2-34 0-38-4zM593 806l-33-15v-25c0-33 10-37 52-25l36 9 26-10 26-10v-30h-91l-28-15c-16-8-31-22-35-30-9-25-7-94 4-115l10-18 28-10 29-10 86 5 86 6-5 86c-3 47-7 105-10 127l-5 41-24 23-24 23-48 4-48 3-32-14zm105-203 3-23-18-2c-34-3-57 2-64 14l-8 12 11 14 11 13 31-3 31-3 3-22zm207 210c-11-3-30-14-43-26l-23-21-16-55-15-54 11-52 12-52 25-24 26-24h127l12 12 11 11-7 32-7 32-37-6-38-6-19 14-19 14v89l15 17 14 18 38-6 37-6 7 36 7 35-11 11c-11 11-79 19-107 11zm848-4-33-10-20-39c-11-22-23-59-26-83l-6-42 11-41 11-40 24-23 24-23 40-5 40-5 36 12 36 12v18c0 10-3 25-6 34l-6 16h-97l-11 19c-13 26-13 64 2 97l12 26 42-6 42-5 6 15c3 9 6 28 6 44v27l-37 7c-45 7-49 7-90-5zm561-3-19-14-12 10-12 10-23-4-23-3-3-147-3-148h79l6 16c3 9 6 53 6 99v84l19 11c11 5 31 10 45 10h26v66l-12 12c-16 16-50 15-74-2zm123-3c-4-3-7-66-7-138V532l14-11 15-12 27 3 27 3-2 134c-1 73-5 139-8 147l-5 14h-27c-15 0-31-3-34-7z"/></g><g fill="#0c86bd" transform="matrix(.1 0 0 -.1 0 300)"><path d="M1425 2630c-86-12-179-45-260-92l-70-41-71-72-71-72-39-69-38-69-23-79-24-80-5-85-6-86 16-74 16-74 29-64c88-188 281-346 481-394l55-13 85 1 85 2 77 20c85 22 155 55 239 112l56 38 67 72 67 72 39 81 40 81 16 85 16 85-5 85-5 86-28 84-28 83-46 71-47 71-64 60-65 61-81 42-80 42-64 14c-35 8-95 17-134 20l-70 4-60-8zm194-234 21-19v-287h246l20-14 19-14 3-100 4-100-11-21-12-21h-82c-45 0-106-3-134-6l-53-7v-257l-25-16-25-16-89 3-90 4-18 18-18 18-5 122-5 122-109 7-109 8-22 14-22 14-6 63c-10 88-9 137 3 160l11 19h272l-6 155-5 155 16 10 17 10 96-2 97-3 21-19zm-289-765v-100l23-25 22-25 110-3 110-3 30 13c17 7 37 23 45 35l14 22 4 93 4 92h194c107 0 194-3 194-6s-15-33-32-67l-33-60-49-55c-72-79-142-122-290-181l-29-12-96-6-96-5-89 21-88 21-57 31c-126 69-206 152-270 277l-21 42h400v-99zm-477 773c-89-94-163-229-200-359l-14-50-6-106-6-105 17-80 18-79 45-95 46-95 81-80 81-80 65-38c72-41 188-88 283-115l62-17 165 1h165l86 27c121 37 189 68 288 134l86 57 95 95 95 96 59 88c56 85 125 226 126 257 0 8 5 22 10 30l9 15 45-44 45-44 15 6 16 6v18c0 10-9 83-19 162l-20 144-12 8-13 7-55-20c-31-11-93-38-138-59l-83-40v-27l45-33 44-34-6-20c-3-11-26-67-50-125-102-238-250-406-456-515l-85-46-97-24-98-25h-212l-64 15c-35 9-102 33-147 54l-84 40-61 46-60 47-54 65c-30 36-70 96-90 134l-36 68-20 78-20 78v202l15 65c23 100 52 169 111 262l53 86-10 6-10 6-45-48zM2448 942l-18-3v-89h66l12 12 12 12v64l-27 4c-16 2-36 2-45 0zm-510-9-18-4V520l25-6c14-3 32-4 40 0l15 5v211l25 6 26 6 19-17 19-17 3-97 3-96h70l-3 115c-1 63-5 125-7 136l-5 21-30 13-31 13-44-6-45-7v128l-16 6c-17 6-19 6-46-1zm-871-10c-2-5-2-99 1-210l5-203h76l3 108 3 107 28 3 28 3 14-11 13-11 8-100 7-100 31 3 31 3 3 102 3 102-15 35-15 35-25 7c-14 3-46 4-71 2l-45-3v36c0 20-3 51-6 68l-6 31h-34c-18 0-35-3-37-7zm-952-35c-3-18-5-109-3-203l3-170h70l5 117 5 118 38-75 39-75h58l39 78 40 77 1-117V521l20-11 21-11 20 6 19 6-2 202-3 202h-80l-50-97c-27-54-53-98-56-98s-27 45-53 100l-47 100h-78l-6-32zm1279-2-37-37 6-45 5-46 23-24 24-23 64-23 64-23 8-23 9-22-21-21-21-21-41 5c-23 3-54 8-68 12l-27 7-7-32-7-32 11-11 11-11 60-4 61-4 44 17 45 17 20 25 20 26v86l-22 25-23 26-69 27-69 28-10 17-11 16 14 17 14 17 51-5c27-3 56-7 64-9l15-3 10 28 10 27-12 12-11 11-80 5-80 5-37-37zm1176-46v-40h-30v-49l18-13 17-13V552l19-21 19-21h117v23c0 33-12 45-45 49l-30 3-9 56-9 57 6 16 6 16h111V550l20-20 20-20h120v13c0 6-3 22-6 35l-6 22h-54l-12 12-12 12v125l33 3 32 3v70l-32 3-33 3v69h-58l-6-16c-3-9-6-27-6-40v-25l-57 3-58 3-3 38-3 37h-69v-40zM581 793l-21-18 6-21 6-21 37 10 37 10 27-7 27-6v-40h-35c-20 0-51-6-70-14l-33-14-12-23-12-22 5-41 6-41 21-17 21-17 96 1h96l-7 76c-3 41-6 96-6 122v47l-26 27-27 26H602l-21-17zm117-190-3-28-31-3-31-3-12 15-13 16 6 15 5 15h82l-3-27zm184 197-23-10-19-42-20-43v-52c0-61 11-94 41-122l23-21h55c31 0 62 4 69 9l14 8-4 29-3 29-38-3-39-4-19 18-19 17v85l18 22 19 23 31-11 31-11 12 36 11 35-13 9c-18 11-98 10-127-1zm860 0-23-10-19-42-20-43V598l15-33 16-32 25-14c28-14 74-17 117-6l28 8-3 32-3 32-38-3-39-4-19 18-19 17v85l19 23 19 24 32-12 31-12 10 25c13 36 11 51-7 58-23 9-95 6-122-4zm496 2-18-3V509l38 3 37 3 3 95 3 95 16 13c9 6 29 12 45 12h28v80h-63l-19-17-18-16v10c0 13-28 21-52 15zm202-6-12-16 4-126 4-125 14-10c8-5 25-9 38-9h22l-1 103c0 56-4 122-7 147l-7 45-21 3-21 3-13-15z"/></g><g fill="#bb3031" transform="matrix(.1 0 0 -.1 0 300)"><path d="M1425 2630c-86-12-179-45-260-92l-70-41-71-72-71-72-39-69-38-69-23-79-24-80-5-85-6-86 16-74 16-74 29-64c88-188 281-346 481-394l55-13 85 1 85 2 77 20c85 22 155 55 239 112l56 38 67 72 67 72 39 81 40 81 16 85 16 85-5 85-5 86-28 84-28 83-46 71-47 71-64 60-65 61-81 42-80 42-64 14c-35 8-95 17-134 20l-70 4-60-8zm194-234 21-19v-287h246l20-14 19-14 3-107 4-106-12-14-12-15h-82c-44 0-105-3-133-6l-53-7v-257l-25-16-25-16-89 3-90 4-18 18-18 18-5 122-5 122-109 7-109 8-22 14-22 14-6 63c-10 88-9 137 3 160l11 19h272l-6 155-5 155 16 10 17 10 96-2 97-3 21-19zm-289-765v-100l23-25 22-25 110-3 110-3 30 13c17 7 37 23 45 35l14 22 4 93 4 92h194c107 0 194-3 194-6s-15-33-32-67l-33-60-49-55c-72-79-142-122-290-181l-29-12-96-6-96-5-89 21-88 21-57 31c-126 69-206 152-270 277l-21 42h400v-99zm1118-689-18-3v-89h66l12 12 12 12v64l-27 4c-16 2-36 2-45 0zm-510-9-18-4V520l25-6c14-3 32-4 40 0l15 5v211l25 6 26 6 19-17 19-17 3-97 3-96h70l-3 115c-1 63-5 125-7 136l-5 21-30 13-31 13-44-6-45-7v128l-16 6c-17 6-19 6-46-1zm-544-47-37-37 6-45 5-46 23-24 24-23 64-23 64-23 8-23 9-22-21-21-21-21-41 5c-23 3-54 8-68 12l-27 7-7-32-7-32 11-11 11-11 60-4 61-4 44 17 45 17 20 25 20 26v86l-22 25-23 26-69 27-69 28-10 17-11 16 14 17 14 17 51-5c27-3 56-7 64-9l15-3 10 28 10 27-12 12-11 11-80 5-80 5-37-37zm1176-46v-40h-30v-49l18-13 17-13V552l19-21 19-21h117v23c0 33-12 45-45 49l-30 3-9 56-9 57 6 16 6 16h111V550l20-20 20-20h120v13c0 6-3 22-6 35l-6 22h-54l-12 12-12 12v125l33 3 32 3v70l-32 3-33 3v69h-58l-6-16c-3-9-6-27-6-40v-25l-57 3-58 3-3 38-3 37h-69v-40zm-828-40-23-10-19-42-20-43V598l15-33 16-32 25-14c28-14 74-17 117-6l28 8-3 32-3 32-38-3-39-4-19 18-19 17v85l19 23 19 24 32-12 31-12 10 25c13 36 11 51-7 58-23 9-95 6-122-4zm496 2-18-3V509l38 3 37 3 3 95 3 95 16 13c9 6 29 12 45 12h28v80h-63l-19-17-18-16v10c0 13-28 21-52 15zm202-6-12-16 4-126 4-125 14-10c8-5 25-9 38-9h22l-1 103c0 56-4 122-7 147l-7 45-21 3-21 3-13-15z"/></g><g fill="#211f1e" transform="matrix(.1 0 0 -.1 0 300)"><path d="m1430 2630-65-8-73-27c-40-14-101-43-135-62l-62-36-70-72-70-71-33-56c-18-31-44-88-58-126l-24-69-12-95-12-95 17-89 17-89 35-70 34-70 56-68c98-118 231-206 370-243l60-15h180l77 20c89 23 160 57 245 117l61 44 61 67 61 67 40 81 41 80 14 78c35 187 2 351-102 509l-44 67-66 61-67 61-80 39c-94 46-163 65-261 73l-70 5-65-8zm167-221c15-5 31-16 35-22l8-12v-285h246l20-14 19-14 3-109 4-109-14-12-14-11-59-5c-33-3-93-5-132-5l-73-1v-260l-25-16-25-16-89 3-89 4-21 19-20 19-3 121-3 121-114 7-114 6-19 20-19 19-6 95-6 94 12 22 11 21 133 3 132 3v306l15 9 15 10h164l28-11zm-379-256 122-6v-27h-241l-25-25-26-26 4-120 3-121 28-24 28-24h63c35 0 84-3 110-6l46-7v-198l14-34 14-34 39-10 38-11h170l31 19 32 19 10 49 11 48-3 50c-2 28-1 62 2 78l5 27h196l26 10 26 10 16 37 16 38v95l1 95-14 25c-7 14-18 28-24 32l-11 8h-225v28l22 5c12 4 102 3 200 0l178-6 11-36c6-20 14-81 16-135l5-99-12-56-12-56-39-75c-22-41-55-96-74-122-67-92-208-181-335-214l-61-15-77-1c-42 0-106 5-142 11l-65 12-85 41-85 41-75 76-76 76-36 70c-20 39-44 96-53 129l-17 58 4 117 5 116 16 38 17 37h84c45 0 138-3 204-7z"/></g></g></svg>